# Blender v2.91.0 OBJ File: 'GeoDashLvl1.blend'
# www.blender.org
o Cube
v 1.000000 -0.583667 25.997486
v 1.000000 0.583667 25.997486
v 1.000000 -0.583667 -25.997486
v 1.000000 0.583667 -25.997486
v -1.000000 -0.583667 25.997486
v -1.000000 0.583667 25.997486
v -1.000000 -0.583667 -25.997486
v -1.000000 0.583667 -25.997486
v 1.000000 0.583667 0.000000
v -1.000000 0.583667 0.000000
v 1.000000 0.583667 -12.998743
v -1.000000 0.583667 -12.998743
v -1.000000 0.583667 -6.499372
v 1.000000 0.583667 -6.499372
v 1.000000 1.857470 0.000000
v -1.000000 1.857470 0.000000
v -1.000000 1.857470 -6.499372
v 1.000000 1.857470 -6.499372
v 1.000000 0.583667 -22.747801
v 1.000000 0.583667 -19.498116
v 1.000000 0.583667 -16.248428
v -1.000000 0.583667 -16.248428
v -1.000000 0.583667 -19.498116
v -1.000000 0.583667 -22.747801
v 1.000000 0.583667 -12.998743
v -1.000000 0.583667 -12.998743
v 1.000000 0.583667 -16.248428
v -1.000000 0.583667 -16.248428
v 1.000000 1.783667 -12.998743
v -1.000000 1.783667 -12.998743
v 1.000000 1.783667 -16.248428
v -1.000000 1.783667 -16.248428
v 1.000000 0.583667 -19.498116
v -1.000000 0.583667 -19.498116
v 1.000000 0.583667 -16.248428
v -1.000000 0.583667 -16.248428
v 1.000000 2.983667 -19.498116
v 1.000000 2.983667 -16.248428
v -1.000000 2.983667 -16.248428
v -1.000000 2.983667 -19.498116
vt 0.953799 0.013099
vt 0.994757 0.054057
vt 0.994757 0.013099
vt 0.912841 0.053434
vt 0.953799 0.012476
vt 0.912841 0.012476
vt 0.037500 0.883859
vt 0.025000 0.883859
vt 0.000000 0.933490
vt 0.857655 0.007614
vt 0.845155 0.052008
vt 0.857655 0.052008
vt 1.000062 0.997405
vt 0.150615 0.941360
vt 0.125615 0.941360
vt 0.744510 0.059557
vt 0.791799 0.012267
vt 0.744510 0.012267
vt 0.693510 0.320606
vt 0.493510 0.102365
vt 0.493510 0.320606
vt 0.908124 0.007372
vt 0.870621 0.051766
vt 0.908124 0.051766
vt 0.953832 0.301677
vt 0.445101 0.518677
vt 0.953832 0.518677
vt 0.893510 0.320606
vt 0.693510 0.102365
vt 0.693510 0.320606
vt 0.806388 0.313993
vt 0.310005 0.095751
vt 0.310005 0.313993
vt 0.802299 0.337717
vt 0.287064 0.101897
vt 0.287064 0.337717
vt 0.744510 0.007954
vt 0.744510 0.007954
vt 0.744510 0.007954
vt 0.863937 0.812347
vt 0.753444 0.585176
vt 0.753444 0.812347
vt 0.842225 0.007276
vt 0.817225 0.051670
vt 0.842225 0.051670
vt 0.748755 0.563329
vt 0.548755 0.357733
vt 0.548755 0.563329
vt 0.744510 0.007954
vt 0.744510 0.007954
vt 0.744510 0.007954
vt 0.744510 0.007954
vt 0.744510 0.007954
vt 0.971598 0.356502
vt 0.602615 0.561731
vt 0.971598 0.561731
vt 0.827382 0.562099
vt 0.462306 0.356502
vt 0.462306 0.562099
vt 0.744510 0.056567
vt 0.697220 0.007954
vt 0.697220 0.056567
vt 0.920975 0.562099
vt 0.458242 0.356502
vt 0.458242 0.562099
vt 0.744510 0.007954
vt 0.744510 0.007954
vt 0.744510 0.007954
vt 0.744510 0.007954
vt 0.744510 0.007954
vt 0.664212 0.581404
vt 0.302232 0.808134
vt 0.664212 0.808134
vt 0.679845 0.812347
vt 0.331570 0.585176
vt 0.331570 0.812347
vt 0.752985 0.812347
vt 0.409823 0.585176
vt 0.409823 0.812347
vt 0.974430 0.812347
vt 0.778000 0.585176
vt 0.778000 0.812347
vt 0.953799 0.054057
vt 0.953799 0.053434
vt 0.012500 0.883859
vt 0.000000 0.883859
vt 0.999889 0.933490
vt 0.100000 0.883859
vt 0.999889 0.883859
vt 0.075000 0.883859
vt 0.050000 0.883859
vt 0.870155 0.052008
vt 0.870155 0.007614
vt 0.845155 0.007614
vt 0.100615 0.941360
vt 0.000615 0.941360
vt 0.000615 0.997405
vt 1.000062 0.941360
vt 0.190576 0.941360
vt 0.175615 0.941360
vt 0.163115 0.941360
vt 0.791799 0.059557
vt 0.693510 0.102365
vt 0.870621 0.007372
vt 0.445101 0.301677
vt 0.893510 0.102365
vt 0.806388 0.095751
vt 0.802299 0.101897
vt 0.863937 0.585176
vt 0.817225 0.007276
vt 0.748755 0.357733
vt 0.602615 0.356502
vt 0.827382 0.356502
vt 0.744510 0.007954
vt 0.920975 0.356502
vt 0.744510 0.007954
vt 0.302232 0.581404
vt 0.679845 0.585176
vt 0.752985 0.585176
vt 0.974430 0.585176
vn 0.0000 -1.0000 0.0000
vn 0.0000 0.0000 -1.0000
vn -1.0000 0.0000 0.0000
vn 0.0000 1.0000 0.0000
vn 1.0000 0.0000 0.0000
vn 0.0000 0.0000 1.0000
s off
f 5/1/1 3/2/1 1/3/1
f 3/4/2 8/5/2 4/6/2
f 22/7/3 23/8/3 7/9/3
f 19/10/4 8/11/4 24/12/4
f 3/13/5 11/14/5 14/15/5
f 5/16/6 2/17/6 6/18/6
f 9/19/6 16/20/6 10/21/6
f 2/22/4 10/23/4 6/24/4
f 15/25/4 17/26/4 16/27/4
f 13/28/2 18/29/2 14/30/2
f 10/31/3 17/32/3 13/33/3
f 14/34/5 15/35/5 9/36/5
f 11/37/6 27/38/6 25/39/6
f 21/40/6 39/41/6 22/42/6
f 14/43/4 12/44/4 13/45/4
f 25/46/6 30/47/6 26/48/6
f 12/49/6 25/39/6 26/50/6
f 21/51/6 28/52/6 27/38/6
f 22/53/6 26/50/6 28/52/6
f 29/54/4 32/55/4 30/56/4
f 26/57/3 32/58/3 28/59/3
f 28/60/2 31/61/2 27/62/2
f 27/63/5 29/64/5 25/65/5
f 28/52/6 35/66/6 36/67/6
f 23/68/6 33/69/6 34/70/6
f 38/71/4 40/72/4 39/73/4
f 22/74/3 40/75/3 23/76/3
f 20/77/5 38/78/5 21/79/5
f 23/80/2 37/81/2 20/82/2
f 5/1/1 7/83/1 3/2/1
f 3/4/2 7/84/2 8/5/2
f 24/85/3 8/86/3 7/9/3
f 7/9/3 5/87/3 10/88/3
f 5/87/3 6/89/3 10/88/3
f 10/88/3 13/90/3 7/9/3
f 13/90/3 12/91/3 7/9/3
f 23/8/3 24/85/3 7/9/3
f 12/91/3 22/7/3 7/9/3
f 24/12/4 23/92/4 20/93/4
f 19/10/4 4/94/4 8/11/4
f 24/12/4 20/93/4 19/10/4
f 9/95/5 2/96/5 1/97/5
f 1/97/5 3/13/5 9/95/5
f 3/13/5 4/98/5 19/99/5
f 19/99/5 20/100/5 3/13/5
f 20/100/5 21/101/5 3/13/5
f 3/13/5 21/101/5 11/14/5
f 14/15/5 9/95/5 3/13/5
f 5/16/6 1/102/6 2/17/6
f 9/19/6 15/103/6 16/20/6
f 2/22/4 9/104/4 10/23/4
f 15/25/4 18/105/4 17/26/4
f 13/28/2 17/106/2 18/29/2
f 10/31/3 16/107/3 17/32/3
f 14/34/5 18/108/5 15/35/5
f 11/37/6 21/51/6 27/38/6
f 21/40/6 38/109/6 39/41/6
f 14/43/4 11/110/4 12/44/4
f 25/46/6 29/111/6 30/47/6
f 12/49/6 11/37/6 25/39/6
f 21/51/6 22/53/6 28/52/6
f 22/53/6 12/49/6 26/50/6
f 29/54/4 31/112/4 32/55/4
f 26/57/3 30/113/3 32/58/3
f 28/60/2 32/114/2 31/61/2
f 27/63/5 31/115/5 29/64/5
f 28/52/6 27/38/6 35/66/6
f 23/68/6 20/116/6 33/69/6
f 38/71/4 37/117/4 40/72/4
f 22/74/3 39/118/3 40/75/3
f 20/77/5 37/119/5 38/78/5
f 23/80/2 40/120/2 37/81/2
